<svg xmlns="http://www.w3.org/2000/svg" viewBox="0 0 50 50"><defs><style>.cls-1{fill:#c7b299;}.cls-2{fill:#fff;}</style></defs><title>avatar</title><g id="Layer_2" data-name="Layer 2"><g id="Layer_2-2" data-name="Layer 2"><circle class="cls-1" cx="25" cy="25" r="25"/><path class="cls-2" d="M18.13,27.12A18.4,18.4,0,0,1,25,25.69a18.4,18.4,0,0,1,6.87,1.43q3.57,1.44,3.57,3.75V33.5H14.56V30.88Q14.56,28.56,18.13,27.12Zm10.53-5.58a5.16,5.16,0,0,1-7.32,0,5,5,0,0,1-1.53-3.66,5.09,5.09,0,0,1,1.53-3.69,5.09,5.09,0,0,1,7.32,0,5.1,5.1,0,0,1,1.53,3.69A5,5,0,0,1,28.66,21.54Z"/></g></g></svg>