<?xml version="1.0" encoding="utf-8"?>
<!-- Generator: Adobe Illustrator 20.1.0, SVG Export Plug-In . SVG Version: 6.00 Build 0)  -->
<svg version="1.1" id="Layer_1" xmlns="http://www.w3.org/2000/svg" xmlns:xlink="http://www.w3.org/1999/xlink" x="0px" y="0px"
	 viewBox="0 0 50 50" style="enable-background:new 0 0 50 50;" xml:space="preserve">
<style type="text/css">
	.st0{fill:#9F816E;}
	.st1{fill:#4D3931;}
</style>
<title>icon-telegram</title>
<path class="st0" d="M14.3,28.3c0.1,0.6,2.6,9.1,3.6,12.4c0.3,0.8,0.4,0.9,1.4,0.9c0.7,0,1.3-0.3,1.8-0.8c1.6-1.6,3.4-3.4,5.2-5l0,0
	c0.2,0.2,0.2,0.2,0.3,0.2c3.3,2.4,6.5,4.8,9.8,7.3c0.5,0.3,1,0.6,1.5,0.8c0.7,0.1,1.4-0.2,1.8-0.8c0.3-0.4,0.5-0.9,0.6-1.4l0.4-1.8
	c0.2-1.1,0.5-2,0.6-3c0.6-2.6,1.1-5.2,1.7-7.7c0.2-1.1,0.4-2.2,0.8-3.3c0.2-0.6,0.2-1.2,0.3-1.8c0-0.3,0.3-0.6,0.3-0.9
	c0.1-0.8,0.3-1.6,0.6-2.4l1.4-6.4c0.1-0.9,0.5-1.8,0.6-2.7c0.3-1.2,0.5-2.4,0.6-3.6C47.8,7.1,47,6.1,45.9,6c-0.4,0-0.8,0-1.2,0.2
	c-1.5,0.5-2.9,1.1-4.4,1.7c-2.3,0.9-4.7,1.8-7,2.7h-0.1c-3.9,1.5-8,3-12.1,4.7c-0.6,0.2-1.1,0.5-1.7,0.6C19.3,16,19.3,16,19.2,16
	c-0.9,0.3-2,0.8-2.9,1.1c-2,0.8-4.1,1.5-6.1,2.4S6,21.1,3.8,22.1c-0.6,0.2-1.1,0.5-1.4,1.1c-0.3,0.4-0.3,1,0.1,1.3l0,0
	c0.5,0.3,1,0.5,1.4,0.6C7.4,26.2,10.9,27.2,14.3,28.3"/>
<path class="st1" d="M20.1,31.1L20.1,31.1C20,31.2,20,31.2,20,31.2l0,0l0,0C20,31.1,20,31.1,20.1,31.1C20,31,20,31,20.1,31.1
	C20,31,20,31,20.1,31.1C20.1,31,20.1,31.1,20.1,31.1z"/>
<path class="st1" d="M20.1,31.1L20.1,31.1C20,31.2,20,31.2,20,31.2l0,0C20,31.2,20,31.1,20.1,31.1C20,31,20,31,20.1,31.1
	C20,31,20,31,20.1,31.1C20.1,31,20.1,31.1,20.1,31.1z"/>
<path class="st1" d="M20.1,31.1L20.1,31.1C20,31.2,20,31.2,20,31.2l0,0l0,0C20,31.1,20,31.1,20.1,31.1C20,31.1,20,31,20.1,31.1
	C20.1,31,20.1,31.1,20.1,31.1z"/>
</svg>
