<?xml version="1.0" encoding="utf-8"?>
<!-- Generator: Adobe Illustrator 20.1.0, SVG Export Plug-In . SVG Version: 6.00 Build 0)  -->
<svg version="1.1" id="Layer_1" xmlns="http://www.w3.org/2000/svg" xmlns:xlink="http://www.w3.org/1999/xlink" x="0px" y="0px"
	 viewBox="0 0 50 50" style="enable-background:new 0 0 50 50;" xml:space="preserve">
<style type="text/css">
	.st0{fill:#9F816E;}
</style>
<title>icon-instagram</title>
<path class="st0" d="M2.3,25c0-3,0.2-6.2,0.2-9.2c0-2.6,0.7-5.3,2-7.6c1.7-2.9,4.7-4.9,8-5.4c2.1-0.3,4.1-0.5,6.2-0.5h13.6
	c2.4-0.1,4.7,0.2,7,0.9c4.2,1.3,7.3,4.9,8,9.2c0.4,2,0.5,4.1,0.5,6.2v13.5c0.1,2.4-0.2,4.7-0.9,7c-1.3,4.2-4.8,7.3-9.1,8
	c-2.1,0.4-4.2,0.6-6.3,0.6H17.9c-2.4,0.1-4.7-0.2-7-0.9c-4.2-1.3-7.3-4.9-8-9.2c-0.4-2-0.6-4.1-0.6-6.2C2.3,31.4,2.3,25,2.3,25z
	 M43.7,24.7L43.7,24.7c-0.2-1.8,0-3.6-0.2-5.4c0-1.9-0.1-3.8-0.5-5.7c-0.3-3-2.4-5.5-5.3-6.3c-1.1-0.4-2.3-0.6-3.5-0.6
	C30.3,6.4,26.1,6.4,22,6.4c-2.6-0.1-5.1,0.1-7.7,0.3C10.7,6.8,7.7,9.5,7.2,13c-0.4,2-0.5,4.1-0.5,6.2v11.2c0,1.8,0.2,3.5,0.3,5.3
	c0.2,3.6,2.8,6.5,6.3,7.1c2,0.4,4,0.5,6,0.5h11.5c1.7,0,3.5-0.2,5.1-0.3s3.1-0.7,4.4-1.7c1.9-1.6,3-4,3-6.5
	C43.6,31.5,43.6,28.2,43.7,24.7z"/>
<path class="st0" d="M25,36.6c-6.4,0-11.6-5.2-11.6-11.6S18.6,13.4,25,13.4S36.6,18.6,36.6,25c0,0.1,0,0.1,0,0.2
	C36.6,31.5,31.4,36.7,25,36.6L25,36.6z M25,17.4c-4.2,0-7.6,3.4-7.6,7.6s3.4,7.6,7.6,7.6s7.6-3.4,7.6-7.6S29.2,17.4,25,17.4z"/>
<path class="st0" d="M39.8,12.9c0,1.5-1.2,2.7-2.7,2.7s-2.7-1.2-2.7-2.7s1.2-2.7,2.7-2.7l0,0C38.6,10.2,39.8,11.4,39.8,12.9
	L39.8,12.9z"/>
</svg>
