<?xml version="1.0" encoding="utf-8"?>
<!-- Generator: Adobe Illustrator 20.1.0, SVG Export Plug-In . SVG Version: 6.00 Build 0)  -->
<svg version="1.1" id="Layer_1" xmlns="http://www.w3.org/2000/svg" xmlns:xlink="http://www.w3.org/1999/xlink" x="0px" y="0px"
	 viewBox="0 0 50 50" style="enable-background:new 0 0 50 50;" xml:space="preserve">
<style type="text/css">
	.st0{fill:#9F816E;}
</style>
<title>icon-facebook</title>
<path class="st0" d="M19.9,47.7V27.3h-5.3c-1.6,0-1.6,0-1.6-1.6v-5.1c0-1.6,0-1.6,1.6-1.6h5.5v-1.5c0-2.2,0-4.6,0.2-6.7
	c0.3-3.8,3-7,6.7-7.9c3.1-0.6,6.2-0.7,9.3-0.2c0.3,0.1,0.6,0.4,0.7,0.7v5.8c0,0.5-0.2,0.9-0.9,0.9h-4c-1.6-0.2-3.1,0.9-3.3,2.5
	c0,0.3,0,0.6,0,0.8v4.2c0,0.9,0.2,1.3,1.3,1.3h5.8c0.7,0,1.1,0.2,0.9,0.9c-0.4,2-0.5,4.2-0.7,6.2c-0.2,0.9-0.4,1.1-1.3,1.1h-4.6
	c-0.9,0-1.3,1.3-1.3,1.3v19.3L19.9,47.7z"/>
</svg>
