<?xml version="1.0" encoding="utf-8"?>
<!-- Generator: Adobe Illustrator 20.1.0, SVG Export Plug-In . SVG Version: 6.00 Build 0)  -->
<svg version="1.1" id="Layer_1" xmlns="http://www.w3.org/2000/svg" xmlns:xlink="http://www.w3.org/1999/xlink" x="0px" y="0px"
	 viewBox="0 0 50 50" style="enable-background:new 0 0 50 50;" xml:space="preserve">
<style type="text/css">
	.st0{fill:#9F816E;}
</style>
<path class="st0" d="M2.3,2.4c12.5,0,23.1,4.4,32,13.3s13.3,19.5,13.3,32h-8.2c0-10.3-3.6-19-10.9-26.3s-16-10.9-26.3-10.9V2.4z"/>
<path class="st0" d="M2.3,18.8c8,0,14.8,2.8,20.5,8.5s8.5,12.5,8.5,20.5H23c0-5.6-2-10.5-6.1-14.5S8,27.1,2.3,27.1V18.8z"/>
<path class="st0" d="M2.3,41.3c0-1.7,0.6-3.2,1.8-4.4C5.4,35.6,6.9,35,8.8,35s3.3,0.6,4.5,1.8s1.8,2.7,1.8,4.5
	c0,1.8-0.6,3.3-1.8,4.6c-1.2,1.2-2.7,1.8-4.4,1.8c-1.8,0-3.3-0.6-4.6-1.8C3,44.6,2.3,43.1,2.3,41.3z"/>
</svg>
