<?xml version="1.0" encoding="utf-8"?>
<!-- Generator: Adobe Illustrator 20.1.0, SVG Export Plug-In . SVG Version: 6.00 Build 0)  -->
<svg version="1.1" id="Layer_1" xmlns="http://www.w3.org/2000/svg" xmlns:xlink="http://www.w3.org/1999/xlink" x="0px" y="0px"
	 viewBox="0 0 50 50" style="enable-background:new 0 0 50 50;" xml:space="preserve">
<style type="text/css">
	.st0{fill:#9F816E;}
</style>
<title>icon-g+</title>
<path class="st0" d="M26.5,14.2l-3.9,3.5c-3-1.7-6.4-2.7-9.8-0.9c-2.2,1.1-3.8,3.1-4.5,5.4c-1.5,4.8,1.1,9.9,5.9,11.4
	c0.1,0,0.2,0.1,0.3,0.1c5,1.4,10.1-2,10.4-5.7H17v-5h13.6c0.6,3.8-0.3,7.7-2.4,10.9c-5,7.1-16.3,7.4-22.2,0.6
	C1.1,28.9,1.3,20.4,6.6,15C11.8,9.4,19.9,9,26.5,14.2z"/>
<path class="st0" d="M39.4,31v-3.9h-4.1v-4.3h4.1v-3.9h4.1v3.9h4.2v4.3c-1.4,0.1-2.7,0.1-4.1,0V31L39.4,31z"/>
</svg>
