<svg xmlns="http://www.w3.org/2000/svg" viewBox="0 0 132 60"><title>logo-h-color</title><g id="Layer_2" data-name="Layer 2"><g id="Layer_4" data-name="Layer 4"><rect x="14.39" y="23.95" width="3.26" height="3.26" transform="translate(-13.4 18.82) rotate(-45)" style="fill:#4d3931"/><rect x="29.87" y="34.93" width="3.26" height="3.26" transform="translate(-16.63 32.98) rotate(-45)" style="fill:#4d3931"/><path d="M41.05,28.58a7.88,7.88,0,0,0-.14-1.44,14,14,0,0,0-.37-1.51q-.23-.76-.51-1.5c-.19-.49-.38-1-.58-1.39l-3,1.48q.31.59.61,1.26c.2.44.38.87.54,1.27s.29.77.39,1.11a3,3,0,0,1,.15.75,1.46,1.46,0,0,1-.08.56,1,1,0,0,1-.41.45,2.52,2.52,0,0,1-.66.26,4.45,4.45,0,0,1-.79.12c-.28,0-.55,0-.81,0H25.94a6.08,6.08,0,0,1-.63,0,1.87,1.87,0,0,1-.71-.25,3,3,0,0,1-.77-.68A6.25,6.25,0,0,1,23,27.73l-1.05-2-2.84,1.8.78,1.59q.38.78.67,1.51A12.8,12.8,0,0,1,21,32a5.19,5.19,0,0,1,.18,1.28,3.69,3.69,0,0,1-.4,1.78,3.27,3.27,0,0,1-1.13,1.21,5.16,5.16,0,0,1-1.74.68,10,10,0,0,1-2.22.19A5.57,5.57,0,0,1,14,36.87a5.14,5.14,0,0,1-1.48-.76,3.84,3.84,0,0,1-1-1.16,2.9,2.9,0,0,1-.39-1.49,7.24,7.24,0,0,1,.13-1.32,13.17,13.17,0,0,1,.34-1.42A14,14,0,0,1,12,29.34a12.16,12.16,0,0,1,.58-1.21l-2.34-1.68q-.53,1-.92,1.84a14.84,14.84,0,0,0-.65,1.66,10.71,10.71,0,0,0-.39,1.62,11.28,11.28,0,0,0-.12,1.7,8.6,8.6,0,0,0,.14,1.55,7.79,7.79,0,0,0,.42,1.47,6.74,6.74,0,0,0,.71,1.33,6.29,6.29,0,0,0,1,1.15A6.61,6.61,0,0,0,12.74,40a9.86,9.86,0,0,0,3.1.43,10.74,10.74,0,0,0,2.89-.35,8.44,8.44,0,0,0,2.32-1,5.43,5.43,0,0,0,1.3-1.16,7,7,0,0,0,.93-1.49,8.66,8.66,0,0,0,.57-1.68,9.33,9.33,0,0,0,.23-1.7,1.65,1.65,0,0,0,.24.16,1.68,1.68,0,0,0,.64.13H35.4c.33,0,.69,0,1.07,0a5.71,5.71,0,0,0,1.19-.21,4.81,4.81,0,0,0,1.82-.94,4.46,4.46,0,0,0,1.2-1.62A4.84,4.84,0,0,0,41.05,28.58Z" style="fill:#4d3931"/><path d="M48.56,29.86q-.1-.5-.22-1c-.08-.33-.17-.66-.25-1q-.29-1.07-.68-2.19l-3,1.37.6,1.41c.19.44.35.86.48,1.25s.24.76.32,1.1a4.17,4.17,0,0,1,.12.95A3.22,3.22,0,0,1,45.67,33,5.89,5.89,0,0,1,45,34.23a9.79,9.79,0,0,1-1.06,1.21,14.6,14.6,0,0,1-1.31,1.13,17.31,17.31,0,0,1-1.47,1q-.76.47-1.51.85l1.89,2.63A17.79,17.79,0,0,0,43.41,40a16,16,0,0,0,1.74-1.31,13,13,0,0,0,1.48-1.51,10.84,10.84,0,0,0,1.15-1.68,8.55,8.55,0,0,0,.75-1.8,6.93,6.93,0,0,0,.26-1.91,7.21,7.21,0,0,0-.06-.9C48.68,30.53,48.63,30.2,48.56,29.86Z" style="fill:#4d3931"/><rect x="60.82" y="34.93" width="3.26" height="3.26" transform="translate(-7.56 54.86) rotate(-45)" style="fill:#4d3931"/><path d="M71.86,27.14a14,14,0,0,0-.37-1.51q-.23-.76-.51-1.5c-.19-.49-.38-1-.58-1.39l-3,1.48q.31.59.61,1.26c.2.44.38.87.54,1.27s.29.77.39,1.11a3,3,0,0,1,.15.75,1.46,1.46,0,0,1-.08.56,1,1,0,0,1-.41.45,2.52,2.52,0,0,1-.66.26,4.44,4.44,0,0,1-.79.12c-.28,0-.55,0-.81,0H54.91a1.75,1.75,0,0,1-.41-.07.86.86,0,0,1-.33-.18.92.92,0,0,1-.23-.36,4.56,4.56,0,0,1-.29-1.3,10.92,10.92,0,0,1,0-1.38c0-.47.06-1,.11-1.46a15,15,0,0,0,.06-1.52q0-.88,0-1.91t-.08-2q-.06-1-.14-1.95a15.65,15.65,0,0,0-.22-1.61l-3.11.95A17.44,17.44,0,0,1,50.47,19q.09,1.08.14,2.25t.06,2.34c0,.78,0,1.5,0,2.15s0,1.22,0,1.7,0,.85,0,1.11v.16c0,.19,0,.41,0,.68a4.6,4.6,0,0,0,.11.84,4,4,0,0,0,.32.9,3.25,3.25,0,0,0,.64.87,4.19,4.19,0,0,0,1.58,1,6.71,6.71,0,0,0,2.1.31H66.35c.33,0,.69,0,1.07,0a5.71,5.71,0,0,0,1.19-.21,4.81,4.81,0,0,0,1.82-.94,4.46,4.46,0,0,0,1.2-1.62A4.84,4.84,0,0,0,72,28.58,7.88,7.88,0,0,0,71.86,27.14Z" style="fill:#4d3931"/><path d="M13.12,48.77a3.82,3.82,0,0,1-.66,2.36,2.1,2.1,0,0,1-1.77.87,2.29,2.29,0,0,1-2-1l0,.87H8v-9h.7v3.59a2.21,2.21,0,0,1,2-1,2.12,2.12,0,0,1,1.78.86,3.87,3.87,0,0,1,.66,2.4Zm-.71-.12a3.31,3.31,0,0,0-.49-1.94A1.59,1.59,0,0,0,10.55,46a1.94,1.94,0,0,0-1.15.33,2,2,0,0,0-.71,1v2.87a1.89,1.89,0,0,0,1.87,1.2,1.58,1.58,0,0,0,1.36-.69A3.53,3.53,0,0,0,12.42,48.64Z" style="fill:#4d3931"/><path d="M18.25,51.88a3.26,3.26,0,0,1-.14-.89,2.41,2.41,0,0,1-.94.75A2.91,2.91,0,0,1,16,52a2.13,2.13,0,0,1-1.49-.51,1.65,1.65,0,0,1-.57-1.29,1.7,1.7,0,0,1,.77-1.47,3.72,3.72,0,0,1,2.16-.54h1.28v-.72a1.4,1.4,0,0,0-.42-1.08A1.74,1.74,0,0,0,16.46,46a1.92,1.92,0,0,0-1.22.38,1.12,1.12,0,0,0-.48.9h-.71A1.63,1.63,0,0,1,14.76,46a2.71,2.71,0,0,1,1.73-.56,2.48,2.48,0,0,1,1.68.53,1.91,1.91,0,0,1,.63,1.48v3a3.72,3.72,0,0,0,.2,1.39v.07ZM16,51.38A2.38,2.38,0,0,0,17.3,51a2,2,0,0,0,.81-.91v-1.4H16.85a3.14,3.14,0,0,0-1.65.38,1.15,1.15,0,0,0-.59,1A1.13,1.13,0,0,0,15,51,1.5,1.5,0,0,0,16,51.38Z" style="fill:#4d3931"/><path d="M24.25,51.88a3.26,3.26,0,0,1-.14-.89,2.41,2.41,0,0,1-.94.75A2.91,2.91,0,0,1,22,52a2.13,2.13,0,0,1-1.49-.51,1.65,1.65,0,0,1-.57-1.29,1.7,1.7,0,0,1,.77-1.47,3.72,3.72,0,0,1,2.16-.54h1.28v-.72a1.4,1.4,0,0,0-.42-1.08A1.74,1.74,0,0,0,22.46,46a1.92,1.92,0,0,0-1.22.38,1.12,1.12,0,0,0-.48.9h-.71A1.63,1.63,0,0,1,20.76,46a2.71,2.71,0,0,1,1.73-.56,2.48,2.48,0,0,1,1.68.53,1.91,1.91,0,0,1,.63,1.48v3a3.72,3.72,0,0,0,.2,1.39v.07ZM22,51.38A2.38,2.38,0,0,0,23.3,51a2,2,0,0,0,.81-.91v-1.4H22.85a3.14,3.14,0,0,0-1.65.38,1.15,1.15,0,0,0-.59,1A1.13,1.13,0,0,0,21,51,1.5,1.5,0,0,0,22,51.38Z" style="fill:#4d3931"/><path d="M29.17,46.13a2.45,2.45,0,0,0-.47,0,1.71,1.71,0,0,0-1.12.37,2,2,0,0,0-.65,1.07v4.36h-.7V45.52h.68v1a1.87,1.87,0,0,1,1.79-1.13,1.14,1.14,0,0,1,.47.08Z" style="fill:#4d3931"/><path d="M35,48.77a3.82,3.82,0,0,1-.66,2.36,2.1,2.1,0,0,1-1.77.87,2.29,2.29,0,0,1-2-1l0,.87h-.66v-9h.7v3.59a2.21,2.21,0,0,1,2-1,2.12,2.12,0,0,1,1.78.86,3.87,3.87,0,0,1,.66,2.4Zm-.71-.12a3.31,3.31,0,0,0-.49-1.94A1.59,1.59,0,0,0,32.39,46a1.94,1.94,0,0,0-1.15.33,2,2,0,0,0-.71,1v2.87a1.89,1.89,0,0,0,1.87,1.2,1.58,1.58,0,0,0,1.36-.69A3.53,3.53,0,0,0,34.25,48.64Z" style="fill:#4d3931"/><path d="M35.67,48.61A3.75,3.75,0,0,1,36,47a2.68,2.68,0,0,1,1-1.14,2.71,2.71,0,0,1,1.47-.41,2.61,2.61,0,0,1,2.06.89,3.43,3.43,0,0,1,.79,2.36v.15A3.81,3.81,0,0,1,41,50.47a2.65,2.65,0,0,1-1,1.14,2.75,2.75,0,0,1-1.48.4,2.62,2.62,0,0,1-2.05-.89,3.41,3.41,0,0,1-.79-2.36Zm.71.19A2.87,2.87,0,0,0,37,50.68a2,2,0,0,0,3.09,0,3,3,0,0,0,.59-1.93v-.14a3.27,3.27,0,0,0-.27-1.34,2.15,2.15,0,0,0-.76-.94A1.94,1.94,0,0,0,38.5,46a1.88,1.88,0,0,0-1.53.74,3,3,0,0,0-.59,1.93Z" style="fill:#4d3931"/><path d="M43,45.52l0,1.09a2.51,2.51,0,0,1,.89-.89,2.31,2.31,0,0,1,1.18-.31,1.91,1.91,0,0,1,1.52.58,2.64,2.64,0,0,1,.51,1.73v4.17h-.7V47.7a2,2,0,0,0-.36-1.27A1.41,1.41,0,0,0,45,46a1.77,1.77,0,0,0-1.15.41,2.4,2.4,0,0,0-.75,1.1v4.35h-.7V45.52Z" style="fill:#4d3931"/><path d="M48.46,51.46a.51.51,0,0,1,.13-.35A.47.47,0,0,1,49,51a.49.49,0,0,1,.37.15.5.5,0,0,1,.14.35.46.46,0,0,1-.14.34.52.52,0,0,1-.37.13.5.5,0,0,1-.37-.13A.46.46,0,0,1,48.46,51.46Z" style="fill:#4d3931"/><path d="M53.3,51.41A1.86,1.86,0,0,0,54.53,51a1.46,1.46,0,0,0,.54-1.07h.68A2,2,0,0,1,55.38,51a2.26,2.26,0,0,1-.89.75A2.7,2.7,0,0,1,53.3,52a2.46,2.46,0,0,1-2-.87,3.53,3.53,0,0,1-.73-2.34v-.21a4,4,0,0,1,.33-1.67,2.53,2.53,0,0,1,.94-1.12,2.59,2.59,0,0,1,1.44-.4A2.45,2.45,0,0,1,55,46a2.28,2.28,0,0,1,.73,1.64h-.68a1.72,1.72,0,0,0-.53-1.2,1.92,1.92,0,0,0-2.72.23,3.1,3.1,0,0,0-.53,1.93v.21a3,3,0,0,0,.53,1.9A1.77,1.77,0,0,0,53.3,51.41Z" style="fill:#4d3931"/><path d="M56.32,48.61A3.75,3.75,0,0,1,56.67,47a2.68,2.68,0,0,1,1-1.14,2.71,2.71,0,0,1,1.47-.41,2.61,2.61,0,0,1,2.06.89A3.43,3.43,0,0,1,62,48.65v.15a3.81,3.81,0,0,1-.35,1.66,2.65,2.65,0,0,1-1,1.14,2.75,2.75,0,0,1-1.48.4,2.62,2.62,0,0,1-2.05-.89,3.41,3.41,0,0,1-.79-2.36Zm.71.19a2.87,2.87,0,0,0,.59,1.87,2,2,0,0,0,3.09,0,3,3,0,0,0,.59-1.93v-.14A3.27,3.27,0,0,0,61,47.28a2.15,2.15,0,0,0-.76-.94A1.94,1.94,0,0,0,59.15,46a1.88,1.88,0,0,0-1.53.74A3,3,0,0,0,57,48.67Z" style="fill:#4d3931"/><path d="M63.64,45.52l0,1a2.35,2.35,0,0,1,.88-.86,2.41,2.41,0,0,1,1.17-.29,1.79,1.79,0,0,1,1.91,1.23,2.39,2.39,0,0,1,.91-.91,2.53,2.53,0,0,1,1.25-.32q2.05,0,2.09,2.23v4.24h-.7V47.69a1.89,1.89,0,0,0-.37-1.26A1.49,1.49,0,0,0,69.64,46a1.86,1.86,0,0,0-1.28.49,1.74,1.74,0,0,0-.58,1.17v4.21h-.71V47.64a1.76,1.76,0,0,0-.39-1.22,1.53,1.53,0,0,0-1.17-.4,1.76,1.76,0,0,0-1.14.38,2.21,2.21,0,0,0-.71,1.13v4.36H63V45.52Z" style="fill:#4d3931"/><path d="M123.81,16.57a29.82,29.82,0,0,0-12.27.14A22,22,0,0,0,94,8a20.21,20.21,0,0,0-2.07.1,39.59,39.59,0,0,0-5.23,9.45,18,18,0,0,0,1.75,33.57,4,4,0,0,0,.49.15,17.58,17.58,0,0,0,3.93.7h.29L94,52c.38,0,.76,0,1.13,0a21.56,21.56,0,0,0,8-2A32,32,0,0,0,124,20,30,30,0,0,0,123.81,16.57Z" style="fill:#4d3931"/><path d="M123.81,16.57a29.82,29.82,0,0,0-12.27.14,29,29,0,0,0-7.18,2.57A30,30,0,0,0,88,46a29.32,29.32,0,0,0,.27,4,10.44,10.44,0,0,0,.18,1.12,4,4,0,0,0,.49.15,17.58,17.58,0,0,0,3.93.7h.29L94,52c.38,0,.76,0,1.13,0a21.56,21.56,0,0,0,8-2A32,32,0,0,0,124,20,30,30,0,0,0,123.81,16.57Z" style="fill:#009146"/><path d="M112,34A18,18,0,0,1,99.85,51a18.39,18.39,0,0,1-4.72.94c-.37,0-.75,0-1.13,0l-.84,0h-.29a17.58,17.58,0,0,1-3.93-.7,4,4,0,0,1-.49-.15A10.44,10.44,0,0,1,88.27,50,29.32,29.32,0,0,1,88,46a30,30,0,0,1,16.36-26.72A18,18,0,0,1,112,34Z" style="fill:#006631"/><path d="M88,46a29.32,29.32,0,0,0,.27,4A40,40,0,0,1,86.7,17.55a18,18,0,0,1,17.66,1.73A30,30,0,0,0,88,46Z" style="fill:#664d42"/><path d="M111.54,16.71a29,29,0,0,0-7.18,2.57A18,18,0,0,0,86.7,17.55,39.59,39.59,0,0,1,91.93,8.1,20.21,20.21,0,0,1,94,8,22,22,0,0,1,111.54,16.71Z" style="fill:#8b695a"/><path d="M116,30a22,22,0,0,1-12.84,20,21.56,21.56,0,0,1-8,2A18.39,18.39,0,0,0,99.85,51a18,18,0,0,0,4.51-31.75,29,29,0,0,1,7.18-2.57A21.92,21.92,0,0,1,116,30Z" style="fill:#00803e"/><rect width="132" height="60" style="fill:none"/></g></g></svg>