<svg xmlns="http://www.w3.org/2000/svg" viewBox="0 0 92.29 64"><defs><style>.cls-1{opacity:0.3;}.cls-2{fill:#8b695a;}</style></defs><title>pattern-02</title><g id="Layer_2" data-name="Layer 2"><g id="Layer_4" data-name="Layer 4"><g class="cls-1"><path class="cls-2" d="M91.92,18.73a65.24,65.24,0,0,0-25.51.2,48.3,48.3,0,0,1,9.42,28.83A48.61,48.61,0,0,1,73,64h7.81A69.66,69.66,0,0,0,92.29,25.8,61.17,61.17,0,0,0,91.92,18.73Z"/><path class="cls-2" d="M65.26,19.19A63.28,63.28,0,0,0,50.77,24.3,40,40,0,0,1,66.34,64h5.52a47.7,47.7,0,0,0-6.59-44.81Z"/><path class="cls-2" d="M49.67,24.85A65.23,65.23,0,0,0,17.12,64h48.1A39,39,0,0,0,49.67,24.85Z"/><path class="cls-2" d="M27,0c-1.51,0-2.9.07-4.26.2A87,87,0,0,0,11.93,19.39a39.79,39.79,0,0,1,15-2.92,40.2,40.2,0,0,1,12.14,1.87A39.49,39.49,0,0,1,49.76,23.6a62.62,62.62,0,0,1,14.75-5.36A47.44,47.44,0,0,0,27,0Z"/><path class="cls-2" d="M48.66,24.15A38.65,38.65,0,0,0,27,17.56a38.2,38.2,0,0,0-15.61,3.27,86.55,86.55,0,0,0-5.8,31.31A88.84,88.84,0,0,0,6.35,64H16A66.24,66.24,0,0,1,48.66,24.15Z"/><path class="cls-2" d="M10,21.49A38.77,38.77,0,0,0,0,28.44V64H5.26a89.61,89.61,0,0,1-.79-11.86A87.32,87.32,0,0,1,10,21.49Z"/></g></g></g></svg>