<svg xmlns="http://www.w3.org/2000/svg" viewBox="0 0 47.5 43.49"><defs><style>.cls-1{opacity:0.3;}.cls-2{fill:#8b695a;}</style></defs><title>pattern-brown1-tr</title><g id="Layer_2" data-name="Layer 2"><g id="Layer_4" data-name="Layer 4"><g id="_Group_" data-name="&lt;Group&gt;" class="cls-1"><path class="cls-2" d="M47.5,11.75A31.87,31.87,0,0,1,31.14,39.52,22.34,22.34,0,0,0,40,21.75,22,22,0,0,0,35.71,8.62a29.71,29.71,0,0,1,11.62-.09A27.86,27.86,0,0,1,47.5,11.75Z"/><path class="cls-2" d="M35.19,8.74a21.56,21.56,0,0,1,4.31,13,21.82,21.82,0,0,1-12,19.44,18.26,18.26,0,0,0,1.09-30.12A28.82,28.82,0,0,1,35.19,8.74Z"/><path class="cls-2" d="M35.5,25.75a17.73,17.73,0,0,1-12,16.79,18,18,0,0,1-4.65.93h0c-.64,0-1.28,0-2,0h-.27a17.59,17.59,0,0,1-3.89-.69l-.33-.1c0-.13,0-.26-.07-.39l-.08-.57a29,29,0,0,1-.27-4A29.68,29.68,0,0,1,28.09,11.32,17.77,17.77,0,0,1,35.5,25.75Z"/><path class="cls-2" d="M34.85,8.31a28.52,28.52,0,0,0-6.72,2.44,18,18,0,0,0-4.85-2.4,18.31,18.31,0,0,0-5.53-.85A18.13,18.13,0,0,0,10.9,8.83,39.63,39.63,0,0,1,15.81.09C16.43,0,17.06,0,17.75,0A21.61,21.61,0,0,1,34.85,8.31Z"/><path class="cls-2" d="M27.63,11A30.15,30.15,0,0,0,11.5,37.75c0,.86,0,1.72.11,2.57a39.83,39.83,0,0,1-1-30.83A17.4,17.4,0,0,1,17.75,8,17.6,17.6,0,0,1,27.63,11Z"/><path class="cls-2" d="M11.88,42.49A17.74,17.74,0,0,1,10,9.79a40.26,40.26,0,0,0,1.77,32h0C11.8,42,11.83,42.26,11.88,42.49Z"/></g></g></g></svg>